{"title":"LONG TIME DEAD.DEWSTRR","uid":4792787,"size":1013492621,"categoryP":"video","categoryS":"movies","magnet":"?xt=urn:btih:1a526cabf50c2bebc83c02c6751c11ebd9725a1f&amp;dn=LONG+TIME+DEAD.DEWSTRR&amp;tr=udp%3A%2F%2Ftracker.openbittorrent.com%3A80&amp;tr=udp%3A%2F%2Fopen.demonii.com%3A1337&amp;tr=udp%3A%2F%2Ftracker.coppersurfer.tk%3A6969&amp;tr=udp%3A%2F%2Fexodus.desync.com%3A6969","seeders":1,"leechers":0,"uploader":"dewstrr505","files":14,"time":1237769292,"description":"LONG TIME DEAD DVDRIP\n\nHorror | Thriller\n\nA group of British college students who are close friends embark on a night of intense partying including alcohol and drugs, and while under the influence, intent on a bit of fun, try to establish a link with the spirit world using a homemade Ouija board. However, fun is the last thing on their minds when the Ouija board spells out the words &quot;All Die&quot;, and they give up on the board before closing the link to the spirit world and, unknown to them, unleash something evil into their world, and it isn't long before one of them is murdered by an unseen force. Soon they all find themselves terrified for their lives, as the spirit they have let out begins to kill them off, one by one.\n &lt;a href=&quot;\nhttp://www.imdb.com/title/tt0251806/&quot; rel=&quot;nofollow&quot; target=&quot;_NEW&quot;&gt;\nhttp://www.imdb.com/title/tt0251806/&lt;/a&gt;\n\nFormat :      AVI\nFormat/Info :     Audio Video Interleave\nFile size :     966 MiB\nDuration :     1h 34mn\nOverall bit rate :     1 437 Kbps\n\nVideo\nFormat :     MPEG-4 Visual\nFormat settings, BVOP :     Yes\nFormat settings, QPel :     No\nFormat settings, GMC :     No warppoints\nFormat settings, Matrix :     Default\nCodec ID :     DX50\nCodec ID/Hint :     DivX 5\nDuration :     1h 34mn\nBit rate :     1 300 Kbps\nWidth :     720 pixels\nHeight :     384 pixels\nDisplay aspect ratio :     1.875\nFrame rate :     23.976 fps\nResolution :     24 bits\nColorimetry :     4:2:0\nScan type :     Progressive\nBits/(Pixel*Frame) :     0.196\nStream size :     874 MiB (90%)\nTitle :     Video\nWriting library :     DivX 6.8.2 (UTC 2008-05-17)\n\nAudio\nFormat :     MPEG Audio\nFormat version :     Version 1\nFormat profile :     Layer 3\nCodec ID :     55\nCodec ID/Hint :     MP3\nDuration :     1h 33mn\nBit rate mode :     Constant\nBit rate :     128 Kbps\nChannel(s) :     2 channels\nSampling rate :     48.0 KHz\nResolution :     16 bits\nStream size :     86.1 MiB (9%)\nAlignment :     Split accross interleaves\nInterleave, duration :     42 ms (1.00 video frame)\nInterleave, preload duration :     500 ms\nTitle :     Audio\nWriting library :     LAME3.92\n\nGeneral\nComplete name : LONG TIME DEAD.DEWSTRRL T D 1.sfv\nFile size :     1.55 KiB\n\nGeneral\nComplete name : LONG TIME\nFile size :     47.0 Bytes\n[IMG]http://i203.photobucket.com/albums/aa38/476352oop/MOVIES/LTD1.jpg[/IMG]\n[IMG]http://i203.photobucket.com/albums/aa38/476352oop/MOVIES/LTD2.jpg[/IMG]\n[IMG]http://i203.photobucket.com/albums/aa38/476352oop/MOVIES/LTD3.jpg[/IMG]\n[IMG]http://i203.photobucket.com/albums/aa38/476352oop/MOVIES/LTD4.jpg[/IMG]\n[IMG]http://i203.photobucket.com/albums/aa38/476352oop/MOVIES/LTD5.jpg[/IMG]\n[IMG]http://i203.photobucket.com/albums/aa38/476352oop/MOVIES/LTD6.jpg[/IMG]\n[IMG]http://i203.photobucket.com/albums/aa38/476352oop/MOVIES/LTD7.jpg[/IMG]\n[IMG]http://i203.photobucket.com/albums/aa38/476352oop/MOVIES/LTD8.jpg[/IMG]\n[IMG]http://i203.photobucket.com/albums/aa38/476352oop/MOVIES/LTD9.jpg[/IMG]\n[IMG]http://i203.photobucket.com/albums/aa38/476352oop/MOVIES/LTD10.jpg[/IMG]\nburned with windows [with a couple of other movies on a disk] and played on my philips divx ultra certified dvd player\nbe sure to set your dvd player on the correct aspect ratio\n","torrent":{"xt":"urn:btih:1a526cabf50c2bebc83c02c6751c11ebd9725a1f","amp;dn":"LONG+TIME+DEAD.DEWSTRR","amp;tr":["udp%3A%2F%2Ftracker.openbittorrent.com%3A80","udp%3A%2F%2Fopen.demonii.com%3A1337","udp%3A%2F%2Ftracker.coppersurfer.tk%3A6969","udp%3A%2F%2Fexodus.desync.com%3A6969"],"infoHash":"1a526cabf50c2bebc83c02c6751c11ebd9725a1f","infoHashBuffer":{"type":"Buffer","data":[26,82,108,171,245,12,43,235,200,60,2,198,117,28,17,235,217,114,90,31]},"announce":[],"urlList":[]}}